# xmcd
#
# Track frame offsets:
#	150
#	25025
#	47922
#	71622
#	95422
#	112847
#	129360
#	143352
#	150537
#	170770
#	183232
#	210545
#	233982
#	255430
#	264827
#
# Disc length: 3904 seconds
#
# Revision: 1
# Processed by: cddbd v1.5.1PL0 Copyright (c) Steve Scherf et al.
# Submitted via: CDex 1.50Beta5
#
DISCID=bc0f3e0f
DTITLE=FOE - ONE RIVER TWO STRINGS
DYEAR=2000
DGENRE=Rock
TTITLE0=プレイ
TTITLE1=傷ましき腕
TTITLE2=漂流
TTITLE3=セブン
TTITLE4=FLOWERS OF ERROR
TTITLE5=アンブレラ
TTITLE6=テロメア
TTITLE7=WALK DON’T RUN
TTITLE8=マーブル・アーチ
TTITLE9=若葉
TTITLE10=円の半周
TTITLE11=ダンボール
TTITLE12=夢回転
TTITLE13=F.O.E.
TTITLE14=夢で逢いましょう
EXTD=
EXTT0=
EXTT1=
EXTT2=
EXTT3=
EXTT4=
EXTT5=
EXTT6=
EXTT7=
EXTT8=
EXTT9=
EXTT10=
EXTT11=
EXTT12=
EXTT13=
EXTT14=
PLAYORDER=
